<?xml version="1.0" encoding="UTF-8"?>
<svg xmlns="http://www.w3.org/2000/svg" viewBox="0 0 24 24" fill="none" stroke="#2D3436" stroke-width="1.85" stroke-linecap="round" stroke-linejoin="round">
<circle cx="12" cy="12" r="3"/>
<path d="M19.4 15a1.8 1.8 0 0 0 .36 1.98l.06.06a2 2 0 1 1-2.83 2.83l-.06-.06A1.8 1.8 0 0 0 15 19.4a1.8 1.8 0 0 0-1 1.64V21a2 2 0 1 1-4 0v-.08A1.8 1.8 0 0 0 9 19.4a1.8 1.8 0 0 0-1.98.36l-.06.06a2 2 0 0 1-2.83-2.83l.06-.06A1.8 1.8 0 0 0 4.6 15c0-.4-.13-.79-.38-1.1A1.8 1.8 0 0 0 3 13H3a2 2 0 1 1 0-4h.08A1.8 1.8 0 0 0 4.6 9c.1-.39.1-.81 0-1.2a1.8 1.8 0 0 0-.41-.77l-.06-.06a2 2 0 1 1 2.83-2.83l.06.06A1.8 1.8 0 0 0 9 4.6c.4 0 .79-.13 1.1-.38A1.8 1.8 0 0 0 11 3V3a2 2 0 1 1 4 0v.08A1.8 1.8 0 0 0 15 4.6c.39.1.81.1 1.2 0 .3-.08.56-.22.77-.41l.06-.06a2 2 0 0 1 2.83 2.83l-.06.06A1.8 1.8 0 0 0 19.4 9c0 .4.13.79.38 1.1.28.34.7.55 1.18.55H21a2 2 0 1 1 0 4h-.08c-.48 0-.9.21-1.18.55-.25.31-.38.7-.38 1.1Z"/>
</svg>
